<!DOCTYPE svg PUBLIC "-//W3C//DTD SVG 1.1//EN" "http://www.w3.org/Graphics/SVG/1.1/DTD/svg11.dtd">
<!-- Uploaded to: SVG Repo, www.svgrepo.com, Transformed by: SVG Repo Mixer Tools -->
<svg version="1.1" id="Uploaded to svgrepo.com" xmlns="http://www.w3.org/2000/svg" xmlns:xlink="http://www.w3.org/1999/xlink" width="64px" height="64px" viewBox="0 0 32 32" xml:space="preserve" fill="#000000">
<g id="SVGRepo_bgCarrier" stroke-width="0"/>
<g id="SVGRepo_tracerCarrier" stroke-linecap="round" stroke-linejoin="round"/>
<g id="SVGRepo_iconCarrier"> <style type="text/css"> .feather_een{fill:#000000;} </style> <path class="feather_een" d="M12,16.5c0,0.276-0.224,0.5-0.5,0.5h-5C6.224,17,6,16.776,6,16.5S6.224,16,6.5,16h5 C11.776,16,12,16.224,12,16.5z M11.5,14h-5C6.224,14,6,14.224,6,14.5S6.224,15,6.5,15h5c0.276,0,0.5-0.224,0.5-0.5 S11.776,14,11.5,14z M32,7v18c0,1.657-1.343,3-3,3H19c0,0.552-0.448,1-1,1h-4c-0.552,0-1-0.448-1-1H3c-1.657,0-3-1.343-3-3V7 c0-1.657,1.343-3,3-3h17c0-0.552,0.448-1,1-1h4c0.552,0,1,0.448,1,1h3C30.657,4,32,5.343,32,7z M21,16.586l1.293-1.293L23,14.586 l0.707,0.707L25,16.586V4h-4V16.586z M16.5,25.632l0.419-0.21C17.472,25.146,18.09,25,18.708,25H29V5h-3v11.586 c0,0.603-0.493,1.002-1.007,1.002c-0.246,0-0.496-0.091-0.7-0.295L23,16l-1.293,1.293c-0.204,0.204-0.454,0.295-0.7,0.295 c-0.514,0-1.007-0.399-1.007-1.002V5h-3.5V25.632z M3,25h10.292c0.618,0,1.236,0.146,1.789,0.422l0.419,0.21V5H3V25z M31,7 c0-0.737-0.405-1.375-1-1.722V25c0,0.552-0.448,1-1,1H18.708c-0.466,0-0.925,0.108-1.342,0.317l-0.919,0.46 c-0.141,0.07-0.294,0.106-0.447,0.106c-0.153,0-0.306-0.035-0.447-0.106l-0.919-0.46C14.217,26.108,13.758,26,13.292,26H3 c-0.552,0-1-0.448-1-1V5.278C1.405,5.625,1,6.263,1,7v18c0,1.103,0.897,2,2,2h11v1h4v-1h11c1.103,0,2-0.897,2-2V7z M11.5,12h-5 C6.224,12,6,12.224,6,12.5S6.224,13,6.5,13h5c0.276,0,0.5-0.224,0.5-0.5S11.776,12,11.5,12z"/> </g>
</svg>